<svg width="100" height="18" xmlns="http://www.w3.org/2000/svg" xmlns:xlink="http://www.w3.org/1999/xlink"><svg width="100" height="17.13" viewBox="-1 -1 100 17.13" xmlns="http://www.w3.org/2000/svg"><path d="M3.724 4.087a1.757 1.757 0 01-.014-.741 1.156 1.156 0 011.282-.951 1.2 1.2 0 011.3 1.281v.874h3.494v-.991C9.786.49 7.039.001 5.058.001 2.569.001.536.833.164 3.137a4.908 4.908 0 00.028 1.9c.606 2.884 5.586 3.719 6.31 5.544a1.824 1.824 0 01.027 1.042 1.214 1.214 0 01-1.368.953 1.253 1.253 0 01-1.4-1.285l-.005-1.357H0v1.079c0 3.155 2.46 4.1 5.093 4.1 2.531 0 4.61-.869 4.949-3.23a7.04 7.04 0 00-.015-2.309c-.591-2.958-5.904-3.836-6.303-5.487zm45.563.035a1.875 1.875 0 01-.012-.729 1.15 1.15 0 011.269-.944 1.187 1.187 0 011.284 1.27v.863h3.454V3.6c0-3.04-2.707-3.518-4.666-3.518-2.468 0-4.483.819-4.851 3.107a4.728 4.728 0 00.033 1.88c.6 2.852 5.531 3.68 6.246 5.483a1.907 1.907 0 01.026 1.034 1.19 1.19 0 01-1.35.942 1.244 1.244 0 01-1.4-1.265V9.906h-3.717v1.076c0 3.119 2.425 4.06 5.038 4.06 2.5 0 4.569-.861 4.9-3.2a6.947 6.947 0 00-.024-2.287c-.578-2.921-5.833-3.801-6.23-5.433zM81.1 11.809L77.8.45h-5.2v13.961h3.439l-.2-11.723 3.543 11.723h4.987V.45h-3.462zM15 .45l-2.6 14.109h3.784L18.144 1.5l1.909 13.061h3.758L21.227.45H15zm21.161 0l-1.767 11.029L32.626.45h-5.715l-.3 14.109h3.5L30.2 1.5l2.409 13.061h3.553L38.577 1.5l.095 13.061h3.511L41.869.45H36.16zm32.556 0h-3.543v10.437a2.546 2.546 0 01-.031.536 1.39 1.39 0 01-2.683 0 2.35 2.35 0 01-.035-.536V.45h-3.542v10.113c0 .261.016.793.031.933.245 2.636 2.307 3.491 4.882 3.491s4.642-.856 4.891-3.491a7.4 7.4 0 00.03-.933V.45zm24.328 6.189V8.7h1.436v2.042a2.571 2.571 0 01-.036.537 1.51 1.51 0 01-2.863 0 3.491 3.491 0 01-.037-.537V4.29a2.907 2.907 0 01.064-.667 1.465 1.465 0 012.793 0 3.836 3.836 0 01.043.544v.783h3.528v-.462a8.441 8.441 0 00-.027-.934C97.681.907 95.516.07 93.033.07s-4.609.845-4.918 3.484a9.991 9.991 0 00-.071.934v5.932a8.015 8.015 0 00.056.931c.23 2.574 2.445 3.486 4.923 3.486s4.692-.912 4.926-3.486c.042-.472.046-.672.052-.931V6.64h-4.956z" fill-rule="evenodd"/></svg></svg>