<svg width="243" height="114" viewBox="0 0 243 114" xmlns="http://www.w3.org/2000/svg" xmlns:xlink="http://www.w3.org/1999/xlink"><svg id="branding-white" viewBox="-1 -1 88 15" width="88" height="15" x="139.2" y="32" xmlns="http://www.w3.org/2000/svg"><style>.ast0{fill:#fff}</style><path id="aSamsung_Logo" class="ast0" d="M5.7 9.1c.1.3.1.6 0 .9-.1.5-.6.9-1.2.8-.6.1-1.1-.3-1.2-.9V8.5H0v.9C0 12.2 2.2 13 4.5 13c2.2 0 4.1-.7 4.3-2.8.1-.7.1-1.3 0-2-.5-2.5-5.2-3.3-5.5-4.7 0-.2-.1-.4 0-.6.1-.5.5-.9 1.1-.8.5-.1 1.1.3 1.1.9v1h3.1v-.9C8.6.4 6.2 0 4.4 0 2.2 0 .4.7.1 2.7c-.1.5 0 1.1.1 1.6.5 2.5 4.9 3.2 5.5 4.8zm40 0c.1.3.1.6 0 .9-.1.5-.6.9-1.2.8-.6.1-1.1-.3-1.2-.9V8.5H40v.9c0 2.7 2.1 3.5 4.4 3.5 2.2 0 4-.7 4.3-2.7.1-.7.1-1.3 0-2-.5-2.5-5.1-3.3-5.5-4.7 0-.2-.1-.4 0-.6.1-.5.6-.9 1.1-.8.6-.1 1.1.4 1.1.9v.9h3v-.8c0-2.6-2.4-3-4.1-3-2.2 0-3.9.7-4.3 2.7-.1.5-.1 1.1 0 1.6.7 2.4 5 3.1 5.7 4.7zm25.5 1.1L71 .4h3v12h-4.4l-3-10.1.2 10.1h-3V.4h4.6l2.8 9.8zM15.9 1.3l-1.7 11.2h-3.3L13.2.4h5.5L21 12.5h-3.3L15.9 1.3zm18 0l-2.1 11.2h-3.1L26.5 1.3l-.1 11.2h-3.1L23.6.4h5l1.6 9.5L31.7.4h5l.3 12.1h-3.1V1.3zM56 10.7c.6.1 1.1-.3 1.2-.9V.3h3.1v9.5c-.2 2.3-2 3-4.3 3s-4.1-.7-4.3-3V.4h3.1v9.5c.1.5.6.9 1.2.8zm25.6-.1c.6.1 1.1-.3 1.3-.9V7.5h-1.3V5.7H86v4.1c-.2 2.2-2.1 3-4.3 3s-4.1-.8-4.3-3V3.9c0-.2 0-.6.1-.8.3-2.3 2.1-3 4.3-3s4.1.7 4.3 3v1.2H83V3.1c-.1-.6-.7-.9-1.2-.9-.6-.1-1.1.3-1.2.9 0 .2-.1.4-.1.6v6c0 .6.5 1 1.1.9z"/></svg><svg id="cta-over" width="32" height="32" viewBox="-1 -1 32 32" x="139.2" y="47" xmlns="http://www.w3.org/2000/svg"><defs><style>.bcls-1{fill:#fff}.bcls-2{fill-rule:evenodd}</style></defs><circle id="bEllipse_1_copy" data-name="Ellipse 1 copy" class="bcls-1" cx="15" cy="15" r="15"/><path id="barrow_copy" data-name="arrow copy" class="bcls-2" d="M32.686 120.771L38.457 115l-5.771-5.771 1.107-.707L40.271 115l-6.478 6.478z" transform="translate(-20 -100)"/></svg><svg id="cta-switch-over" width="103" height="32" viewBox="-1 -1 103 32" y="82" xmlns="http://www.w3.org/2000/svg"><defs><style>.ccls-1{fill:#fff}.ccls-2{fill-rule:evenodd}</style></defs><rect id="cRounded_Rectangle_1_copy_2" data-name="Rounded Rectangle 1 copy 2" class="ccls-1" width="101" height="30" rx="15" ry="15"/><path id="cSWITCH_NOW_copy_6" data-name="SWITCH NOW copy 6" class="ccls-2" d="M38.055 39.086a2.917 2.917 0 0 0 1.993-.628 2.217 2.217 0 0 0 .714-1.756 2.034 2.034 0 0 0-.451-1.38 2.907 2.907 0 0 0-1.45-.8l-.881-.247a1.8 1.8 0 0 1-.838-.424.962.962 0 0 1-.269-.7.841.841 0 0 1 .333-.72 1.6 1.6 0 0 1 .967-.247 5.561 5.561 0 0 1 1.955.419l.43-1.031a5.855 5.855 0 0 0-1.166-.381 5.635 5.635 0 0 0-1.2-.134 2.717 2.717 0 0 0-1.891.612 2.173 2.173 0 0 0-.677 1.7 2.013 2.013 0 0 0 .451 1.375 2.931 2.931 0 0 0 1.45.795l.881.247a1.763 1.763 0 0 1 .833.424.974.974 0 0 1 .263.7.913.913 0 0 1-.365.784 1.823 1.823 0 0 1-1.085.268 4.189 4.189 0 0 1-2.095-.58l-.419 1.031a4.151 4.151 0 0 0 1.166.5 5.179 5.179 0 0 0 1.348.177zm11.539-7.906l-1.257 6.273-1.267-6.263h-1.386l-1.246 6.263-1.268-6.273h-1.332l1.88 7.777h1.407l1.235-5.994 1.257 5.994h1.407l1.891-7.777h-1.321zm3.075 7.777h1.289V31.18h-1.29v7.777zm8.209-7.777h-5.232v1.16h1.966v6.617H58.9V32.34h1.976v-1.16zm4.353 7.906a4.572 4.572 0 0 0 1.219-.156 2.578 2.578 0 0 0 .908-.424l-.44-.978a3.215 3.215 0 0 1-1.622.376 2.077 2.077 0 0 1-1.7-.7 3.2 3.2 0 0 1-.575-2.073 3.6 3.6 0 0 1 .559-2.159 1.842 1.842 0 0 1 1.579-.763 3.805 3.805 0 0 1 1.7.419l.441-1a3.566 3.566 0 0 0-.99-.428 4.168 4.168 0 0 0-1.133-.156 3.339 3.339 0 0 0-1.853.51 3.281 3.281 0 0 0-1.214 1.456 5.389 5.389 0 0 0-.424 2.224 4.054 4.054 0 0 0 .929 2.841 3.367 3.367 0 0 0 2.616 1.015zM73.6 31.18v3.255h-3.168V31.18h-1.289v7.777h1.289v-3.373H73.6v3.373h1.29V31.18H73.6zm11.187 0v5.586l-3.48-5.586h-1.235v7.777h1.268v-5.6l3.48 5.6h1.235V31.18h-1.267zm6.555 7.92a2.984 2.984 0 0 0 2.433-1.015 4.624 4.624 0 0 0 .843-3.013 4.624 4.624 0 0 0-.843-3.013 3.417 3.417 0 0 0-4.861 0 4.644 4.644 0 0 0-.838 3.013 4.644 4.644 0 0 0 .838 3.013 2.967 2.967 0 0 0 2.428 1.015zm0-1.149q-1.934 0-1.934-2.879t1.934-2.879q1.944 0 1.944 2.879t-1.944 2.879zm12.216-6.768l-1.258 6.27-1.268-6.263h-1.384L98.4 37.453l-1.265-6.273H95.8l1.88 7.777h1.41l1.235-5.994 1.257 5.994h1.407l1.891-7.777h-1.322z" transform="translate(-20 -20)"/></svg><svg id="cta-switch-up" width="103" height="32" viewBox="-1 -1 103 32" x="139.2" xmlns="http://www.w3.org/2000/svg"><defs><style>.dcls-1{fill:#fff;fill-rule:evenodd}</style></defs><path id="dRounded_Rectangle_1" data-name="Rounded Rectangle 1" class="dcls-1" d="M106 50H35a15 15 0 0 1 0-30h71a15 15 0 0 1 0 30zm-.5-29h-70a14.215 14.215 0 0 0-14.25 14A14.215 14.215 0 0 0 35.5 49h70a14.215 14.215 0 0 0 14.25-14 14.215 14.215 0 0 0-14.25-14z" transform="translate(-20 -20)"/><path id="dSWITCH_NOW_copy_5" data-name="SWITCH NOW copy 5" class="dcls-1" d="M38.055 39.086a2.917 2.917 0 0 0 1.993-.628 2.217 2.217 0 0 0 .714-1.756 2.034 2.034 0 0 0-.451-1.38 2.907 2.907 0 0 0-1.45-.8l-.881-.247a1.8 1.8 0 0 1-.838-.424.962.962 0 0 1-.269-.7.841.841 0 0 1 .333-.72 1.6 1.6 0 0 1 .967-.247 5.561 5.561 0 0 1 1.955.419l.43-1.031a5.855 5.855 0 0 0-1.166-.381 5.635 5.635 0 0 0-1.2-.134 2.717 2.717 0 0 0-1.891.612 2.173 2.173 0 0 0-.677 1.7 2.013 2.013 0 0 0 .451 1.375 2.931 2.931 0 0 0 1.45.795l.881.247a1.763 1.763 0 0 1 .833.424.974.974 0 0 1 .263.7.913.913 0 0 1-.365.784 1.823 1.823 0 0 1-1.085.268 4.189 4.189 0 0 1-2.095-.58l-.419 1.031a4.151 4.151 0 0 0 1.166.5 5.179 5.179 0 0 0 1.348.177zm11.539-7.906l-1.257 6.273-1.267-6.263h-1.386l-1.246 6.263-1.268-6.273h-1.332l1.88 7.777h1.407l1.235-5.994 1.257 5.994h1.407l1.891-7.777h-1.321zm3.075 7.777h1.289V31.18h-1.29v7.777zm8.209-7.777h-5.232v1.16h1.966v6.617H58.9V32.34h1.976v-1.16zm4.353 7.906a4.572 4.572 0 0 0 1.219-.156 2.578 2.578 0 0 0 .908-.424l-.44-.978a3.215 3.215 0 0 1-1.622.376 2.077 2.077 0 0 1-1.7-.7 3.2 3.2 0 0 1-.575-2.073 3.6 3.6 0 0 1 .559-2.159 1.842 1.842 0 0 1 1.579-.763 3.805 3.805 0 0 1 1.7.419l.441-1a3.566 3.566 0 0 0-.99-.428 4.168 4.168 0 0 0-1.133-.156 3.339 3.339 0 0 0-1.853.51 3.281 3.281 0 0 0-1.214 1.456 5.389 5.389 0 0 0-.424 2.224 4.054 4.054 0 0 0 .929 2.841 3.367 3.367 0 0 0 2.616 1.015zM73.6 31.18v3.255h-3.168V31.18h-1.289v7.777h1.289v-3.373H73.6v3.373h1.29V31.18H73.6zm11.187 0v5.586l-3.48-5.586h-1.235v7.777h1.268v-5.6l3.48 5.6h1.235V31.18h-1.267zm6.555 7.92a2.984 2.984 0 0 0 2.433-1.015 4.624 4.624 0 0 0 .843-3.013 4.624 4.624 0 0 0-.843-3.013 3.417 3.417 0 0 0-4.861 0 4.644 4.644 0 0 0-.838 3.013 4.644 4.644 0 0 0 .838 3.013 2.967 2.967 0 0 0 2.428 1.015zm0-1.149q-1.934 0-1.934-2.879t1.934-2.879q1.944 0 1.944 2.879t-1.944 2.879zm12.216-6.768l-1.258 6.27-1.268-6.263h-1.384L98.4 37.453l-1.265-6.273H95.8l1.88 7.777h1.41l1.235-5.994 1.257 5.994h1.407l1.891-7.777h-1.322z" transform="translate(-20 -20)"/></svg><svg id="cta-up" width="32" height="32" viewBox="-1 -1 32 32" x="171.2" y="47" xmlns="http://www.w3.org/2000/svg"><defs><style>.ecls-1{fill:#fff;fill-rule:evenodd}</style></defs><path class="ecls-1" d="M35 101.5A13.5 13.5 0 1 1 21.5 115 13.5 13.5 0 0 1 35 101.5zm0-1.5a15 15 0 1 1-15 15 15 15 0 0 1 15-15z" transform="translate(-20 -100)"/><path id="earrow" class="ecls-1" d="M32.686 120.771L38.457 115l-5.771-5.771 1.107-.707L40.271 115l-6.478 6.478z" transform="translate(-20 -100)"/></svg><svg id="cta-upgrade-over" width="114" height="32" viewBox="-1 -1 114 32" y="18" xmlns="http://www.w3.org/2000/svg"><defs><style>.fcls-1{fill:#fff}.fcls-2{fill-rule:evenodd}</style></defs><rect id="fRounded_Rectangle_2_copy" data-name="Rounded Rectangle 2 copy" class="fcls-1" width="112" height="30" rx="15" ry="15"/><path id="fUPGRADE_NOW_copy_7" data-name="UPGRADE NOW copy 7" class="fcls-2" d="M38.85 79.347a2.867 2.867 0 0 0 2.111-.741 2.821 2.821 0 0 0 .747-2.095V71.43h-1.29v5.006A1.474 1.474 0 0 1 38.86 78.2q-1.547 0-1.547-1.762V71.43h-1.289v5.081a2.578 2.578 0 0 0 2.825 2.836zm7.973-7.917h-2.815v7.777H45.3v-2.535h1.461a2.588 2.588 0 0 0 1.923-.693 3.1 3.1 0 0 0 .021-3.867 2.507 2.507 0 0 0-1.88-.682zm0 4.093H45.3v-2.944h1.461a1.228 1.228 0 0 1 1.278 1.482 1.2 1.2 0 0 1-1.214 1.461zm7.135-.666v1.15h1.321v2.052a3.848 3.848 0 0 1-1.031.14q-2.267 0-2.267-2.879t2.245-2.868a4.39 4.39 0 0 1 1.858.451l.387-1.031a3.132 3.132 0 0 0-.988-.43 4.91 4.91 0 0 0-1.235-.15 3.37 3.37 0 0 0-2.659 1.058 5.163 5.163 0 0 0 0 5.941 3.37 3.37 0 0 0 2.659 1.058 5.154 5.154 0 0 0 1.284-.156 3.472 3.472 0 0 0 1.037-.435v-3.9h-2.61zm8.9 4.351H64.4l-1.955-2.933a2.067 2.067 0 0 0 1.117-.849 2.729 2.729 0 0 0 .387-1.5 2.472 2.472 0 0 0-.661-1.837 2.533 2.533 0 0 0-1.864-.655h-2.716v7.777H60v-2.786h1.117zM60 72.568h1.386a1.158 1.158 0 0 1 1.235 1.375 1.142 1.142 0 0 1-1.192 1.375H60v-2.75zm10.777 6.639h1.364l-2.678-7.777h-1.407l-2.675 7.777h1.353l.559-1.8h2.922zm-3.137-2.933l1.106-3.588 1.117 3.588h-2.226zm8.6-4.845H73.8v7.777h2.417a3.413 3.413 0 0 0 2.637-.983 5.126 5.126 0 0 0 .005-5.817 3.405 3.405 0 0 0-2.632-.978zm-.022 6.628h-1.124v-5.478H76.2q2.234 0 2.234 2.728a3.226 3.226 0 0 1-.559 2.057 2.012 2.012 0 0 1-1.665.693zm6.866 0v-2.244h2.578v-1.16h-2.585v-2.074h3.491V71.43h-4.78v7.777h4.92v-1.149h-3.631zm13-6.628v5.586L92.6 71.43h-1.236v7.777h1.268v-5.6l3.48 5.6h1.235V71.43H96.08zm6.555 7.917a2.985 2.985 0 0 0 2.433-1.015 5.806 5.806 0 0 0 0-6.026 3.417 3.417 0 0 0-4.861 0 5.836 5.836 0 0 0 0 6.026 2.967 2.967 0 0 0 2.428 1.015zm0-1.149q-1.933 0-1.934-2.879t1.934-2.879q1.944 0 1.944 2.879t-1.948 2.882zm12.216-6.768l-1.261 6.271-1.268-6.263h-1.386l-1.246 6.263-1.267-6.273H107.1l1.88 7.777h1.407l1.235-5.994 1.257 5.994h1.407l1.891-7.777h-1.321z" transform="translate(-20 -60)"/></svg><svg id="cta-upgrade-up" width="114" height="32" viewBox="-1 -1 114 32" y="50" xmlns="http://www.w3.org/2000/svg"><defs><style>.gcls-1{fill:#fff;fill-rule:evenodd}</style></defs><path id="gRounded_Rectangle_2" data-name="Rounded Rectangle 2" class="gcls-1" d="M117 90H35a15 15 0 0 1 0-30h82a15 15 0 0 1 0 30zm-.5-29h-81a14 14 0 1 0 0 28h81a14 14 0 1 0 0-28z" transform="translate(-20 -60)"/><path id="gUPGRADE_NOW_copy_6" data-name="UPGRADE NOW copy 6" class="gcls-1" d="M38.85 79.347a2.867 2.867 0 0 0 2.111-.741 2.821 2.821 0 0 0 .747-2.095V71.43h-1.29v5.006A1.474 1.474 0 0 1 38.86 78.2q-1.547 0-1.547-1.762V71.43h-1.289v5.081a2.578 2.578 0 0 0 2.825 2.836zm7.973-7.917h-2.815v7.777H45.3v-2.535h1.461a2.588 2.588 0 0 0 1.923-.693 3.1 3.1 0 0 0 .021-3.867 2.507 2.507 0 0 0-1.88-.682zm0 4.093H45.3v-2.944h1.461a1.228 1.228 0 0 1 1.278 1.482 1.2 1.2 0 0 1-1.214 1.461zm7.135-.666v1.15h1.321v2.052a3.848 3.848 0 0 1-1.031.14q-2.267 0-2.267-2.879t2.245-2.868a4.39 4.39 0 0 1 1.858.451l.387-1.031a3.132 3.132 0 0 0-.988-.43 4.91 4.91 0 0 0-1.235-.15 3.37 3.37 0 0 0-2.659 1.058 5.163 5.163 0 0 0 0 5.941 3.37 3.37 0 0 0 2.659 1.058 5.154 5.154 0 0 0 1.284-.156 3.472 3.472 0 0 0 1.037-.435v-3.9h-2.61zm8.9 4.351H64.4l-1.955-2.933a2.067 2.067 0 0 0 1.117-.849 2.729 2.729 0 0 0 .387-1.5 2.472 2.472 0 0 0-.661-1.837 2.533 2.533 0 0 0-1.864-.655h-2.716v7.777H60v-2.786h1.117zM60 72.568h1.386a1.158 1.158 0 0 1 1.235 1.375 1.142 1.142 0 0 1-1.192 1.375H60v-2.75zm10.777 6.639h1.364l-2.678-7.777h-1.407l-2.675 7.777h1.353l.559-1.8h2.922zm-3.137-2.933l1.106-3.588 1.117 3.588h-2.226zm8.6-4.845H73.8v7.777h2.417a3.413 3.413 0 0 0 2.637-.983 5.126 5.126 0 0 0 .005-5.817 3.405 3.405 0 0 0-2.632-.978zm-.022 6.628h-1.124v-5.478H76.2q2.234 0 2.234 2.728a3.226 3.226 0 0 1-.559 2.057 2.012 2.012 0 0 1-1.665.693zm6.866 0v-2.244h2.578v-1.16h-2.585v-2.074h3.491V71.43h-4.78v7.777h4.92v-1.149h-3.631zm13-6.628v5.586L92.6 71.43h-1.236v7.777h1.268v-5.6l3.48 5.6h1.235V71.43H96.08zm6.555 7.917a2.985 2.985 0 0 0 2.433-1.015 5.806 5.806 0 0 0 0-6.026 3.417 3.417 0 0 0-4.861 0 5.836 5.836 0 0 0 0 6.026 2.967 2.967 0 0 0 2.428 1.015zm0-1.149q-1.933 0-1.934-2.879t1.934-2.879q1.944 0 1.944 2.879t-1.948 2.882zm12.216-6.768l-1.261 6.271-1.268-6.263h-1.386l-1.246 6.263-1.267-6.273H107.1l1.88 7.777h1.407l1.235-5.994 1.257 5.994h1.407l1.891-7.777h-1.321z" transform="translate(-20 -60)"/></svg><svg id="logos" viewBox="-1 -1 139.2 18" width="139.2" height="18" xmlns="http://www.w3.org/2000/svg"><style>.hst0{fill:#fff}</style><path class="hst0" d="M19.6 3.7c-.6-.8-1.7-1.3-2.9-1.3-2.3 0-4.5 1.7-4.5 4.7 0 2.9 2.3 4.7 4.4 4.7 1.2 0 2.3-.5 2.9-1.4v1.2h2.1v-9h-2.1v1.1h.1zM17 9.9c-1.5 0-2.7-1.2-2.7-2.8s1.2-2.8 2.7-2.8 2.7 1.2 2.7 2.8c0 1.5-1.2 2.8-2.7 2.8zm16.6-6.2c-.6-.8-1.7-1.3-2.9-1.3-2.3 0-4.5 1.7-4.5 4.7 0 2.9 2.3 4.7 4.4 4.7 1.2 0 2.3-.5 2.9-1.4v1.2h2.1v-9h-2.1l.1 1.1zM31 9.9c-1.5 0-2.7-1.2-2.7-2.8s1.2-2.8 2.7-2.8 2.7 1.2 2.7 2.8c0 1.5-1.1 2.8-2.7 2.8zm19.4-1.2l-2.5-6.1h-2.2l3.7 8.5-1.6 3.9h2.1L55 2.6h-2.2zm-4.9-6.1H43l-2 2.8-2.1-2.8h-2.5L39.6 7l-3.3 4.6h2.5l2.1-3 2.2 3h2.6L42.2 7zM23.1.2h2.1v11.4h-2.1zM5.5 7.3h3.6c-.4 1.5-1.6 2.4-3.2 2.4C3.7 9.7 2.1 8 2.1 6s1.6-3.7 3.7-3.7c1.5 0 2.6.7 3.2 2l1.8-1.1C9.8 1.5 8 .3 5.7.3 2.4.2 0 2.8 0 6c0 3.1 2.3 5.8 5.8 5.8 3.4 0 5.5-2.6 5.5-5.6v-.9H5.5v2zM62.8 5c-1.2-.4-2.3-.7-2.3-1.6 0-.7.6-1.3 1.6-1.3.9 0 1.6.4 2 1.1l1.7-1.3C64.9 1 63.8.3 62 .3c-2.2 0-3.7 1.4-3.7 3.2 0 2.1 1.7 2.7 3.2 3.2 1.2.4 2.3.7 2.3 1.6 0 .8-.6 1.5-1.7 1.5-1 0-1.9-.6-2.5-1.5l-1.9 1.5c1 1.2 2.4 2 4.4 2 2.5 0 3.9-1.7 3.9-3.5.1-2.2-1.7-2.8-3.2-3.3zm10.8.7c.6-.5 1.1-1.3 1.1-2.2 0-1.9-1.5-3.2-3.6-3.2-2.2 0-3.7 1.3-3.7 3.2 0 .9.4 1.7 1 2.2-.9.6-1.4 1.5-1.4 2.6 0 2.2 1.4 3.5 4 3.5 2.5 0 4-1.4 4-3.5-.1-1.2-.6-2.1-1.4-2.6zM71 2c1.1 0 1.7.6 1.7 1.4s-.6 1.4-1.8 1.4c-1.2 0-1.7-.6-1.7-1.4 0-.7.7-1.4 1.8-1.4zm-.1 7.9c-1.3 0-2-.7-2-1.7 0-.9.7-1.7 2-1.7s2 .7 2 1.7-.7 1.7-2 1.7zM83-1h.9v14.4H83zm52.9 6.7c.6-.5 1.1-1.3 1.1-2.2 0-1.9-1.5-3.2-3.6-3.2-2.2 0-3.7 1.3-3.7 3.2 0 .9.4 1.7 1 2.2-.9.6-1.4 1.5-1.4 2.6 0 2.2 1.4 3.5 4 3.5 2.5 0 4-1.4 4-3.5-.1-1.2-.6-2.1-1.4-2.6zM133.3 2c1.1 0 1.7.6 1.7 1.4s-.6 1.4-1.8 1.4-1.7-.6-1.7-1.4c0-.7.7-1.4 1.8-1.4zm-.1 7.9c-1.3 0-2-.7-2-1.7 0-.9.7-1.7 2-1.7s2 .7 2 1.7-.7 1.7-2 1.7zM99.8 8L94.9.4h-2.4v11.2h2.1V3.7l5 7.9h2.3V.4h-2.1zm11.3-4.1c-.4-.4-.9-.7-1.5-1-.6-.2-1.2-.3-1.8-.3-.6 0-1.3.1-1.8.3-.6.2-1.1.6-1.5 1s-.8.9-1 1.4c-.2.6-.4 1.1-.4 1.8 0 .6.1 1.2.4 1.8.2.6.6 1 1 1.4s.9.7 1.5 1c.6.2 1.2.3 1.8.3.6 0 1.3-.1 1.8-.3.6-.2 1.1-.6 1.5-1s.8-.9 1-1.4.4-1.1.4-1.8c0-.6-.1-1.2-.4-1.8-.2-.5-.6-1-1-1.4zm-.9 4.2c-.1.3-.3.6-.6.8-.2.2-.5.4-.8.5s-.7.2-1 .2c-.4 0-.7-.1-1-.2-.3-.1-.6-.3-.8-.5-.2-.2-.4-.5-.5-.8s-.2-.6-.2-1 .1-.7.2-1 .3-.6.5-.8c.2-.2.5-.4.8-.5s.7-.2 1-.2c.4 0 .7.1 1 .2s.6.3.8.5c.2.2.4.5.6.8.1.3.2.6.2 1s0 .7-.2 1zm6.2-8.3l-2.1 1.4v1.4h-1.5v1.9h1.5v3.4c0 .7.1 1.3.2 1.8s.3.9.6 1.2c.3.3.6.5 1.1.6s1.1.2 1.7.2h.3v-2c-.4 0-.7 0-1-.1-.2 0-.4-.1-.6-.3s-.2-.3-.3-.6c0-.2-.1-.6-.1-.9V4.5h1.8V2.6h-1.8V-.2h.2zm10.5 4c-.4-.4-.9-.7-1.5-.9-.6-.2-1.2-.3-1.9-.3s-1.3.1-1.8.4c-.6.2-1.1.6-1.5 1s-.8.9-1 1.4c-.2.6-.4 1.1-.4 1.8 0 .6.1 1.2.3 1.8.2.5.6 1 1 1.4s.9.7 1.5 1c.6.2 1.2.3 1.9.3 1 0 1.9-.2 2.6-.7.7-.4 1.3-1 1.6-1.8l-1.7-1c-.2.5-.5.9-1 1.2-.4.3-.9.4-1.5.4-.7 0-1.4-.2-1.8-.6-.5-.4-.8-.9-.9-1.5h7.3v-.8c0-.6-.1-1.2-.3-1.7-.1-.5-.5-1-.9-1.4zM121 5.9c.2-.5.5-.8 1-1.1.5-.3 1-.4 1.6-.4s1.2.1 1.6.4.7.6.9 1.1H121z"/></svg></svg>