<svg width="84" height="34" xmlns="http://www.w3.org/2000/svg" xmlns:xlink="http://www.w3.org/1999/xlink"><svg viewBox="-1 -1 84 17" width="84" height="17" xmlns="http://www.w3.org/2000/svg"><path d="M10.7 3.1C9.3 3.1 8.5 4.2 8.2 5c-.2.4-.3.9-.4.9-.2 0 0-.4-.2-1.1-.2-.8-.9-1.7-2.4-1.7S3 4.4 2.7 5.1c-.2.5-.2.8-.4.8s0-.6.1-1c.2-.9 0-1.6 0-1.6H0v9.2h3.3V7.9c0-.9.4-2 1-2 .7 0 .9.6.9 1.6v5h3.3V7.9c0-.8.3-2 1-2 .8 0 .9.8.9 1.6v5h3.3V7.1c.1-2.4-.8-4-3-4zm8.9 0c-2.5 0-4.4.9-4.4.9v2.8s2-1.2 3.7-1.2c1.3 0 1.5.7 1.4 1.3 0 0-.4-.1-1.5-.1-2.7 0-4.1 1.2-4.1 3.2 0 1.9 1.5 2.7 2.8 2.7 1.9 0 2.7-1.3 3-1.9.2-.4.2-.7.4-.7s.1.2.1.6c0 .7 0 1.3.1 1.7h2.5V8c.1-2.9-.9-4.9-4-4.9zm-.8 7.2c-.8.2-1.2-.1-1.2-.6 0-.7.7-1 1.8-1h.9c.1.4-.6 1.4-1.5 1.6zM29.5.5h3.3v11.9h-3.3zm-4.6 2.8v9.2h3.3V3.3s-.6.3-1.7.3c-1 0-1.6-.3-1.6-.3z"/><ellipse cx="26.6" cy="1.3" rx="2" ry="1.3"/></svg><svg viewBox="-1 -1 84 17" width="84" height="17" y="17" xmlns="http://www.w3.org/2000/svg"><path d="M68.5 3.1C67 3.1 66.3 4.2 66 5c-.2.4-.3.9-.4.9-.2 0 0-.4-.2-1.1-.3-.8-1-1.7-2.4-1.7-1.5 0-2.2 1.3-2.5 2-.2.5-.2.8-.4.8s0-.6.1-1c.2-.9.1-1.6.1-1.6h-2.4v9.2h3.3V7.9c0-.9.4-2 1-2 .7 0 .9.6.9 1.6v5h3.3V7.9c0-.8.3-2 1-2 .8 0 .9.8.9 1.6v5h3.3V7.1c-.1-2.4-.9-4-3.1-4zM36.7 7.9c0-.8.8-1.5 2.2-1.5 1.5 0 2.8.7 3 .8V4s-1-.9-3.4-.9c-2.5 0-4.6 1.5-4.6 4.7s1.9 4.9 4.6 4.9c2.1 0 3.4-1.2 3.4-1.2V8.4c-.4.2-1.5 1-3 1-1.6 0-2.2-.7-2.2-1.5zm12.1-4.8c-1.9 0-2.7 1.8-2.8 2.1-.1.3-.3.7-.4.7-.2 0 0-.6.1-.8.2-.5.5-1.7.5-3.2 0-1-.1-1.4-.1-1.4h-2.9v11.9h3.3V7.8c0-.8.3-2 1.1-2 .7 0 .9.5.9 1.6v5.1h3.3V7.6c.1-2.3-.3-4.5-3-4.5zm4.3.2v9.2h3.3V3.3s-.6.3-1.7.3c-1 0-1.6-.3-1.6-.3z"/><ellipse cx="54.8" cy="1.3" rx="2" ry="1.3"/><path d="M78.3 3.1c-1.7 0-2.5 1.3-2.8 2-.2.5-.3.8-.4.8-.2 0 0-.6.1-1 .2-.9.1-1.6.1-1.6h-2.4V15h3.3v-3.7c.4.7 1.1 1.4 2.2 1.4 2.4 0 3.6-2 3.6-4.8 0-3.1-1.5-4.8-3.7-4.8zm-.9 7.4c-.8 0-1.3-1-1.3-2.3 0-1.3.6-2.3 1.3-2.3.9 0 1.3.8 1.3 2.3 0 1.5-.3 2.3-1.3 2.3z"/></svg></svg>