<svg width="87" height="40" xmlns="http://www.w3.org/2000/svg" xmlns:xlink="http://www.w3.org/1999/xlink"><svg viewBox="-1 -1 87 20" width="87" height="20" xmlns="http://www.w3.org/2000/svg"><path d="M11.1 3.4c-1.5 0-2.3 1.2-2.6 2-.2.4-.3 1-.4 1-.2 0 0-.5-.2-1.1-.2-.9-1-1.8-2.5-1.8-1.6 0-2.3 1.3-2.6 2.1-.2.4-.3.8-.4.8-.2 0 0-.6.1-1 .2-.9.1-1.6.1-1.6H0v9.5h3.5V8.6c0-.9.4-2.1 1.1-2.1.8 0 .9.6.9 1.7v5.2H9V8.7c0-.8.3-2.1 1.1-2.1s.9.8.9 1.7v5.2h3.4V7.9c-.1-2.8-1-4.5-3.3-4.5zm9.3 0c-2.6 0-4.5 1-4.5 1v2.9s2.1-1.2 3.8-1.2c1.4 0 1.5.7 1.5 1.3 0 0-.4-.1-1.6-.1-2.8 0-4.2 1.3-4.2 3.3 0 1.9 1.6 2.8 2.9 2.8 2 0 2.8-1.3 3.1-1.9.2-.4.2-.7.4-.7s.1.2.1.6c0 .8 0 1.3.1 1.8h2.6V8.5c-.1-2.9-1.1-5.1-4.2-5.1zm-.9 7.5c-.8.2-1.3-.1-1.3-.6 0-.7.8-1 1.9-1h.9c.1.4-.6 1.4-1.5 1.6zM30.6.8h3.5v12.4h-3.5zm-4.8 2.9v9.5h3.5V3.7s-.6.3-1.7.3c-1.2 0-1.8-.3-1.8-.3z"/><ellipse cx="27.6" cy="1.6" rx="2.1" ry="1.4"/></svg><svg viewBox="-1 -1 87 20" width="87" height="20" y="20" xmlns="http://www.w3.org/2000/svg"><path d="M71 3.4c-1.5 0-2.3 1.2-2.6 2-.2.4-.3.9-.4.9-.2 0 0-.5-.2-1.1-.2-.9-1-1.8-2.5-1.8-1.6 0-2.3 1.3-2.6 2.1-.2.5-.2.8-.4.8s0-.6.1-1c.2-.9.1-1.6.1-1.6H60v9.5h3.5V8.5c0-.9.4-2.1 1.1-2.1.8 0 .9.6.9 1.7v5.2H69V8.6c0-.8.3-2.1 1.1-2.1s.9.8.9 1.7v5.2h3.4V7.8c-.2-2.7-1.1-4.4-3.4-4.4zm-33 5c0-.9.8-1.6 2.3-1.6 1.6 0 2.9.7 3.2.9V4.4s-1-1-3.5-1c-2.6 0-4.8 1.5-4.8 4.8s2 5.1 4.8 5.1c2.2 0 3.5-1.2 3.5-1.2V9c-.4.2-1.6 1-3.1 1-1.8 0-2.4-.7-2.4-1.6zm12.6-5c-2 0-2.8 1.9-2.9 2.2-.2.3-.3.7-.4.7-.2 0 0-.6.1-.8.2-.5.5-1.8.5-3.3 0-1.1-.1-1.4-.1-1.4h-3v12.4h3.5V8.5c0-.7.3-2.1 1.2-2.1.7 0 .9.5.9 1.6v5.2h3.5v-5c-.1-2.5-.5-4.8-3.3-4.8zm4.5.3v9.5h3.5V3.7s-.6.3-1.7.3c-1.2 0-1.8-.3-1.8-.3z"/><ellipse cx="56.8" cy="1.6" rx="2.1" ry="1.4"/><path d="M81.2 3.4c-1.8 0-2.6 1.3-2.9 2.1-.3.5-.3.9-.5.9s0-.6.1-1c.3-1 .1-1.7.1-1.7h-2.5v12.1H79V12c.4.7 1.2 1.4 2.3 1.4 2.5 0 3.8-2.1 3.8-5-.1-3.2-1.6-5-3.9-5zm-.9 7.7c-.8 0-1.4-1-1.4-2.4s.6-2.4 1.3-2.4c1 0 1.4.9 1.4 2.4 0 1.6-.4 2.4-1.3 2.4z"/></svg></svg>